<?xml version="1.0" encoding="utf-8"?>
<!-- Generator: Adobe Illustrator 24.1.2, SVG Export Plug-In . SVG Version: 6.00 Build 0)  -->
<svg version="1.1" id="Слой_1" xmlns="http://www.w3.org/2000/svg" xmlns:xlink="http://www.w3.org/1999/xlink" x="0px" y="0px"
	 viewBox="0 0 320 320" style="enable-background:new 0 0 320 320;" xml:space="preserve">
<style type="text/css">
	.st0{fill:#F2F2F2;}
	.st1{fill:#333333;}
</style>
<path class="st0" d="M319.9,167.2c-0.3,0.3-0.1,0.7-0.1,1c0.2,13-2.4,25.6-6.1,38c-2.7,9.2-6.3,18.1-10.7,26.7
	c-5.8,11.3-12.9,21.8-21.1,31.4c-2.6,3-5.3,6-8.1,8.8c-15.3,15.3-33.4,27.4-53.5,35.5c-12.2,4.9-25,8.4-38,10.2
	c-4.6,0.6-9.3,0.9-14,0.9c-0.3,0-0.7-0.1-1,0.1H153c-2-0.2-4-0.3-5.9-0.3c-6.8-0.3-13.6-1.3-20.3-2.8c-11.7-2.5-23.1-6.2-33.9-11.3
	c-6.5-3-12.9-6.5-18.9-10.4c-4-2.5-7.8-5.2-11.5-8.1c-0.9-0.7-1.8-1.4-2.8-2.2c-10-8-19-17.1-26.7-27.2c-2.9-3.7-5.6-7.5-8.1-11.5
	C13,227.5,4.9,206.3,1.5,184c-0.7-4.5-1.2-9.1-1.3-13.7c0.1-1.4,0-2.8-0.2-4.2v-12.3c0.4-2.6,0.3-5.3,0.4-7.9
	c0.5-6.8,1.5-13.6,3-20.3c3.1-14.5,8.3-28.4,15.3-41.5C24.3,73.7,31,64,38.7,55c3.3-3.8,6.8-7.5,10.4-11
	c20-19.2,44.7-32.9,71.5-39.7c8.9-2.4,18-3.8,27.2-4.2c1.8,0.1,3.6,0,5.3-0.3h13.8c1.8,0.3,3.7,0.3,5.5,0.3
	c7.8,0.4,15.5,1.5,23.1,3.3c18.1,4.1,35.3,11.3,50.9,21.2c3.9,2.5,7.8,5.2,11.5,8.1c2.1,1.6,4.1,3.3,6.1,5
	c8.6,7.3,16.4,15.5,23.3,24.4c2.9,3.7,5.6,7.5,8.1,11.5c6.6,10.3,12,21.3,16,32.9c3.9,11,6.6,22.5,8,34.1c0.4,3.4,0.5,6.9,0.4,10.3
	c-0.1,0.5-0.1,1.1,0.1,1.6V167.2z"/>
<path class="st1" d="M287.3,62.1l-37.8,37.8c-3.7,3.7-9.1,4.5-12.9,2.2l0.2-0.2c5.2-5.2,5.2-13.5,0-18.7c-5.2-5.2-13.5-5.2-18.7,0
	l-0.2,0.2c-2.3-3.8-1.5-9.2,2.2-12.9l37.8-37.8c-3.7-2.9-7.5-5.6-11.5-8.1l-38.1,38.1c-9.3,9.3-10.2,23.5-2,31.7l0.3,0.3l-10.7,10.7
	l-0.3-0.3c-8.2-8.2-22.4-7.3-31.7,2l-56.6,56.6c-9.3,9.3-10.2,23.5-2,31.7l0.3,0.3l-10.7,10.7l-0.3-0.3c-8.2-8.2-22.4-7.3-31.7,2
	l-37.8,37.8c2.5,4,5.2,7.8,8.1,11.5l37.5-37.5c3.7-3.7,9.1-4.5,12.9-2.2l-0.5,0.5c-5.2,5.2-5.2,13.5,0,18.7c5.2,5.2,13.5,5.2,18.7,0
	l0.5-0.5c2.3,3.8,1.5,9.2-2.2,12.9L62.5,287c3.7,2.9,7.6,5.6,11.5,8.1l37.7-37.7c9.3-9.3,10.2-23.5,2-31.7l-0.3-0.3l10.7-10.7
	l0.3,0.3c8.2,8.2,22.4,7.3,31.7-2l56.6-56.6c9.3-9.3,10.2-23.5,2-31.7l-0.3-0.3l10.7-10.7l0.3,0.3c8.2,8.2,22.4,7.3,31.7-2
	l38.1-38.1C292.8,69.7,290.2,65.8,287.3,62.1z M201.1,148.3l-52.7,52.7c-3.7,3.7-9.1,4.5-12.9,2.2l0.2-0.2c5.2-5.2,5.2-13.5,0-18.7
	c-5.2-5.2-13.5-5.2-18.7,0l-0.2,0.2c-2.3-3.8-1.5-9.2,2.2-12.9l52.7-52.7c3.7-3.7,9.1-4.5,12.9-2.2l-0.5,0.5
	c-5.2,5.2-5.2,13.5,0,18.7c5.2,5.2,13.5,5.2,18.7,0l0.5-0.5C205.5,139.3,204.8,144.6,201.1,148.3z"/>
</svg>
