<svg xmlns="http://www.w3.org/2000/svg" viewBox="0 0 512 512"><circle cx="256" cy="256" r="256" style="fill:#f2f2f2"/><path d="M220.74,346.56,67.16,396.44a5.13,5.13,0,0,0,0,9.77L220.74,456.1a113.55,113.55,0,0,0,70.13,0l153.58-49.89a5.14,5.14,0,0,0,0-9.77L290.87,346.56A113.55,113.55,0,0,0,220.74,346.56Z" style="fill:#333;stroke:#f2f2f2;stroke-miterlimit:10;stroke-width:9px"/><path d="M220.9,276.28,67.32,326.16a5.14,5.14,0,0,0,0,9.78L220.9,385.82a113.55,113.55,0,0,0,70.13,0l153.58-49.88a5.14,5.14,0,0,0,0-9.78L291,276.28A113.55,113.55,0,0,0,220.9,276.28Z" style="fill:#333;stroke:#f2f2f2;stroke-miterlimit:10;stroke-width:9px"/><path d="M221.06,206,67.48,255.89a5.13,5.13,0,0,0,0,9.77l153.58,49.88a113.4,113.4,0,0,0,70.13,0l153.58-49.88a5.13,5.13,0,0,0,0-9.77L291.19,206A113.4,113.4,0,0,0,221.06,206Z" style="fill:#333;stroke:#f2f2f2;stroke-miterlimit:10;stroke-width:9px"/><path d="M221.22,135.73,67.64,185.61a5.14,5.14,0,0,0,0,9.78l153.58,49.88a113.55,113.55,0,0,0,70.13,0l153.58-49.88a5.14,5.14,0,0,0,0-9.78L291.35,135.73A113.55,113.55,0,0,0,221.22,135.73Z" style="fill:#333;stroke:#f2f2f2;stroke-miterlimit:10;stroke-width:9px"/><path d="M221.38,65.45,67.8,115.33a5.14,5.14,0,0,0,0,9.78L221.38,175a113.55,113.55,0,0,0,70.13,0l153.58-49.88a5.14,5.14,0,0,0,0-9.78L291.51,65.45A113.55,113.55,0,0,0,221.38,65.45Z" style="fill:#333;stroke:#f2f2f2;stroke-miterlimit:10;stroke-width:9px"/></svg>